<?xml version="1.0" encoding="utf-8"?>
<!-- Generator: Adobe Illustrator 15.0.2, SVG Export Plug-In . SVG Version: 6.00 Build 0)  -->
<!DOCTYPE svg PUBLIC "-//W3C//DTD SVG 1.1//EN" "http://www.w3.org/Graphics/SVG/1.1/DTD/svg11.dtd">
<svg version="1.1" id="Layer_1" xmlns="http://www.w3.org/2000/svg" xmlns:xlink="http://www.w3.org/1999/xlink" x="0px" y="0px"
	 width="100px" height="100px" viewBox="0 0 100 100" enable-background="new 0 0 100 100" xml:space="preserve">
<polygon fill="#3D89D8" points="63.886,61.281 4.743,61.281 10.665,22.194 70.331,22.194 "/>
<g>
	<path fill="#3D89D8" d="M1.985,64.564l1.355,7.332h9.23c0-2.824,1.079-5.39,2.835-7.332H1.985z"/>
	<path fill="#3D89D8" d="M98.266,48.298l-6.777-17.589H72.279l-5.422,33.855h-35.21c1.755,1.943,2.834,4.509,2.834,7.332h35.626
		c0-6.049,4.908-10.951,10.959-10.951c6.045,0,10.951,4.902,10.951,10.951h3.535L98.266,48.298z"/>
</g>
<polygon fill="#D5EDFB" points="94.936,47.191 72.714,47.191 74.666,33.732 90.047,33.732 "/>
<path fill="#3D89D8" d="M31.672,72.695c0,4.494-3.643,8.135-8.13,8.135c-4.493,0-8.136-3.641-8.136-8.135
	c0-4.488,3.643-8.131,8.136-8.131C28.029,64.564,31.672,68.207,31.672,72.695z"/>
<path fill="#FFFFFF" d="M26.25,72.695c0,1.498-1.212,2.713-2.709,2.713c-1.5,0-2.712-1.215-2.712-2.713
	c0-1.497,1.212-2.711,2.712-2.711C25.038,69.984,26.25,71.198,26.25,72.695z"/>
<path fill="#3D89D8" d="M89.303,72.695c0,4.494-3.643,8.135-8.13,8.135c-4.491,0-8.136-3.641-8.136-8.135
	c0-4.488,3.645-8.131,8.136-8.131C85.66,64.564,89.303,68.207,89.303,72.695z"/>
<path fill="#FFFFFF" d="M83.878,72.695c0,1.498-1.212,2.713-2.707,2.713c-1.502,0-2.714-1.215-2.714-2.713
	c0-1.497,1.212-2.711,2.714-2.711C82.666,69.984,83.878,71.198,83.878,72.695z"/>
</svg>
